<svg width="64" height="64" viewBox="0 0 64 64" fill="none" xmlns="http://www.w3.org/2000/svg">
<path d="M0 6C0 5.46957 0.210714 4.96086 0.585786 4.58579C0.960859 4.21071 1.46957 4 2 4H8C8.44613 4.00012 8.8794 4.1494 9.23092 4.4241C9.58245 4.6988 9.83204 5.08314 9.94 5.516L11.56 12H58C58.2937 12.0003 58.5837 12.0652 58.8494 12.1902C59.1151 12.3152 59.3501 12.4972 59.5376 12.7232C59.725 12.9493 59.8604 13.2138 59.9341 13.4981C60.0078 13.7823 60.018 14.0793 59.964 14.368L53.964 46.368C53.8782 46.8263 53.635 47.2402 53.2764 47.5382C52.9177 47.8362 52.4663 47.9996 52 48H16C15.5337 47.9996 15.0823 47.8362 14.7236 47.5382C14.365 47.2402 14.1218 46.8263 14.036 46.368L8.04 14.428L6.44 8H2C1.46957 8 0.960859 7.78929 0.585786 7.41421C0.210714 7.03914 0 6.53043 0 6ZM12.408 16L17.66 44H50.34L55.592 16H12.408ZM20 48C17.8783 48 15.8434 48.8429 14.3431 50.3431C12.8429 51.8434 12 53.8783 12 56C12 58.1217 12.8429 60.1566 14.3431 61.6569C15.8434 63.1571 17.8783 64 20 64C22.1217 64 24.1566 63.1571 25.6569 61.6569C27.1571 60.1566 28 58.1217 28 56C28 53.8783 27.1571 51.8434 25.6569 50.3431C24.1566 48.8429 22.1217 48 20 48ZM48 48C45.8783 48 43.8434 48.8429 42.3431 50.3431C40.8429 51.8434 40 53.8783 40 56C40 58.1217 40.8429 60.1566 42.3431 61.6569C43.8434 63.1571 45.8783 64 48 64C50.1217 64 52.1566 63.1571 53.6569 61.6569C55.1571 60.1566 56 58.1217 56 56C56 53.8783 55.1571 51.8434 53.6569 50.3431C52.1566 48.8429 50.1217 48 48 48ZM20 52C21.0609 52 22.0783 52.4214 22.8284 53.1716C23.5786 53.9217 24 54.9391 24 56C24 57.0609 23.5786 58.0783 22.8284 58.8284C22.0783 59.5786 21.0609 60 20 60C18.9391 60 17.9217 59.5786 17.1716 58.8284C16.4214 58.0783 16 57.0609 16 56C16 54.9391 16.4214 53.9217 17.1716 53.1716C17.9217 52.4214 18.9391 52 20 52ZM48 52C49.0609 52 50.0783 52.4214 50.8284 53.1716C51.5786 53.9217 52 54.9391 52 56C52 57.0609 51.5786 58.0783 50.8284 58.8284C50.0783 59.5786 49.0609 60 48 60C46.9391 60 45.9217 59.5786 45.1716 58.8284C44.4214 58.0783 44 57.0609 44 56C44 54.9391 44.4214 53.9217 45.1716 53.1716C45.9217 52.4214 46.9391 52 48 52Z" fill="white"/>
</svg>
