<?xml version="1.0" standalone="no"?>
<!DOCTYPE svg PUBLIC "-//W3C//DTD SVG 20010904//EN"
 "http://www.w3.org/TR/2001/REC-SVG-20010904/DTD/svg10.dtd">
<svg version="1.0" xmlns="http://www.w3.org/2000/svg"
 width="110.000000pt" height="89.000000pt" viewBox="0 0 110.000000 89.000000"
 preserveAspectRatio="xMidYMid meet">
<metadata>
Created by potrace 1.16, written by Peter Selinger 2001-2019
</metadata>
<g transform="translate(0.000000,89.000000) scale(0.100000,-0.100000)"
fill="#000000" stroke="none">
<path d="M460 691 c-39 -21 -45 -36 -31 -74 l11 -27 129 0 c119 0 131 2 141
19 5 11 10 22 10 25 0 3 -49 6 -110 6 -67 0 -110 4 -110 10 0 6 45 10 114 10
115 0 126 3 126 41 0 5 -55 9 -123 9 -100 0 -129 -3 -157 -19z"/>
</g>
</svg>
