<svg width="64" height="64" viewBox="0 0 64 64" fill="none" xmlns="http://www.w3.org/2000/svg">
<path d="M26.6667 48C31.3999 47.999 35.9968 46.4145 39.7253 43.4987L51.448 55.2213L55.2187 51.4507L43.496 39.728C46.4133 35.9991 47.9989 31.4012 48 26.6667C48 14.904 38.4293 5.33334 26.6667 5.33334C14.904 5.33334 5.33334 14.904 5.33334 26.6667C5.33334 38.4293 14.904 48 26.6667 48ZM26.6667 10.6667C35.4907 10.6667 42.6667 17.8427 42.6667 26.6667C42.6667 35.4907 35.4907 42.6667 26.6667 42.6667C17.8427 42.6667 10.6667 35.4907 10.6667 26.6667C10.6667 17.8427 17.8427 10.6667 26.6667 10.6667Z" fill="url(#paint0_linear_2_17)"/>
<path d="M30.432 22.896C31.4427 23.9093 32 25.248 32 26.6667H37.3333C37.3357 25.2651 37.0602 23.877 36.5229 22.5826C35.9855 21.2882 35.1969 20.1131 34.2027 19.1253C30.1653 15.0933 23.1653 15.0933 19.1307 19.1253L22.896 22.9013C24.9227 20.88 28.416 20.8853 30.432 22.896Z" fill="url(#paint1_linear_2_17)"/>
<defs>
<linearGradient id="paint0_linear_2_17" x1="30.276" y1="5.33334" x2="30.276" y2="55.2213" gradientUnits="userSpaceOnUse">
<stop stop-color="#2436DD"/>
<stop offset="1" stop-color="#4C85F5"/>
</linearGradient>
<linearGradient id="paint1_linear_2_17" x1="28.232" y1="16.1013" x2="28.232" y2="26.6667" gradientUnits="userSpaceOnUse">
<stop stop-color="#2436DD"/>
<stop offset="1" stop-color="#4C85F5"/>
</linearGradient>
</defs>
</svg>
